<svg width="147" height="269" viewBox="0 0 147 269" fill="none" xmlns="http://www.w3.org/2000/svg">
<path d="M9.01452 0.00301892C11.1162 6.01525 14.003 11.7223 17.5999 16.9754C21.1416 22.2441 25.1684 27.1688 29.6273 31.6848L30.1311 32.1978C29.1629 30.2469 28.327 28.233 27.629 26.1696C26.6458 22.9348 26.5918 19.7318 29.7264 18.2813C33.5856 16.4523 37.8604 19.9013 36.2836 25.1786C35.2813 28.2898 33.5276 31.1048 31.178 33.3736C34.9488 37.0285 38.934 40.4546 43.1124 43.6335C42.196 41.7533 41.4074 39.8131 40.752 37.8263C39.7767 34.5757 39.7306 31.3333 42.8573 29.8985C46.7008 28.0223 50.9519 31.4791 49.3752 36.7485C48.4196 39.7496 46.7577 42.4764 44.5295 44.699C49.3081 48.377 54.1892 51.9603 58.826 55.8591C57.9031 53.952 57.1144 51.9825 56.4657 49.9652C55.4903 46.7145 55.4363 43.4721 58.5552 42.0295C62.4065 40.2163 66.6891 43.6653 65.1124 48.9268C64.1356 51.968 62.444 54.7298 60.1801 56.9798C62.2032 58.7635 64.2107 60.5392 66.1629 62.3544C67.5878 63.7433 68.9811 65.1402 70.335 66.5922C69.7829 65.3712 69.3073 64.1169 68.911 62.8365C67.9357 59.5938 67.8659 56.3987 71.0005 54.9482C74.8597 53.1193 79.1345 56.5288 77.5577 61.8455C76.6382 64.7274 75.0691 67.3587 72.972 69.5358C76.7851 73.9313 80.1619 78.6883 83.0546 83.7396C82.7938 82.3258 82.6155 80.8981 82.5206 79.4635C82.3564 76.0712 83.0583 72.9631 86.4604 72.2779C90.6421 71.4431 93.9637 75.8306 91.1823 80.5631C89.5769 83.1574 87.3962 85.3461 84.8095 86.959C87.6106 92.3877 89.8768 98.0771 91.5758 103.946C91.7165 102.747 91.9246 101.557 92.1992 100.381C92.9878 97.0914 94.5637 94.2992 98.0205 94.6159C102.257 95.0039 104.2 100.14 100.175 103.886C98.0233 105.82 95.4706 107.253 92.7005 108.081C93.8231 112.631 94.6761 117.244 95.255 121.895C95.3413 122.629 95.412 123.363 95.4905 124.097C95.6416 124.24 95.7811 124.396 95.9077 124.562L96.5776 122.779C97.878 119.624 99.8475 117.132 103.202 117.985C107.344 119.02 108.476 124.393 103.915 127.452C101.598 128.966 98.9857 129.968 96.2521 130.392C96.2125 130.518 96.1512 130.635 96.0709 130.739C96.2902 134.216 96.3835 137.706 96.3508 141.208C96.3499 143.82 96.2387 146.423 96.0961 149.042C99.7262 149.312 102.001 153.462 99.1879 157.611C98.005 159.337 96.5372 160.85 94.8474 162.082C94.2 166.958 93.3688 171.804 92.354 176.621C92.8991 176.182 93.5494 175.894 94.2401 175.785C94.9309 175.676 95.6381 175.75 96.2915 175.999C98.5276 176.789 99.4405 178.698 99.6287 180.994C100.354 181.902 100.706 183.054 100.612 184.213C102.526 181.847 104.291 179.323 106.032 176.799C103.789 174.796 101.986 172.348 100.735 169.61C98.3745 164.3 101.762 160.097 105.667 161.471C108.817 162.576 109.335 165.906 108.956 169.487C108.814 170.827 108.593 172.157 108.293 173.471C108.924 172.524 109.554 171.586 110.168 170.631C111.744 168.265 113.139 165.733 114.628 163.296C115.004 162.702 115.349 162.089 115.66 161.458C113.086 159.918 110.858 157.86 109.119 155.413C105.829 150.678 108.334 145.859 112.468 146.492C115.799 146.99 116.9 150.201 117.191 153.751C117.315 155.297 117.341 156.849 117.268 158.398L118.663 155.716C121.644 149.649 124.193 143.378 126.292 136.951C123.351 135.663 120.73 133.742 118.616 131.323C114.837 126.912 116.895 121.903 121.068 122.07C124.423 122.237 125.839 125.33 126.499 128.825C126.821 130.693 127.026 132.58 127.111 134.474C128.273 130.793 129.306 127.061 130.21 123.28C130.817 120.914 131.251 118.547 131.732 116.181C128.529 115.31 125.566 113.717 123.072 111.523C118.766 107.64 120.161 102.402 124.28 102.056C127.627 101.782 129.398 104.646 130.578 108.039C131.212 110.181 131.719 112.36 132.095 114.563C132.553 111.81 133.042 109.041 133.358 106.28C134.144 100.558 134.538 94.788 134.537 89.0115C134.711 94.8048 134.494 100.603 133.885 106.367C133.664 109.018 133.285 111.653 132.938 114.303C133.793 112.569 134.762 110.893 135.837 109.287C137.783 106.511 140.249 104.476 143.359 106.016C147.169 107.918 147.128 113.425 142.025 115.442C138.981 116.52 135.722 116.839 132.528 116.37C132.141 118.737 131.738 121.103 131.242 123.407C130.474 127.088 129.58 130.769 128.56 134.451C129.468 133.095 130.455 131.794 131.515 130.554C133.799 128.054 136.517 126.335 139.39 128.301C142.941 130.669 142.175 136.128 136.828 137.514C133.823 138.21 130.699 138.196 127.701 137.472C125.789 143.995 123.418 150.374 120.607 156.561L119.717 158.415C120.462 157.572 121.251 156.769 122.08 156.009C124.593 153.754 127.46 152.343 130.136 154.56C133.419 157.283 132.11 162.624 126.676 163.434C123.673 163.828 120.619 163.519 117.755 162.532C117.439 163.171 117.124 163.794 116.77 164.401C115.336 166.917 113.988 169.536 112.467 172.005C112.042 172.715 111.593 173.417 111.152 174.127C111.853 173.595 112.581 173.1 113.333 172.644C116.224 170.894 119.311 170.043 121.531 172.647C124.247 175.954 121.969 180.954 116.473 180.716C113.647 180.573 110.887 179.812 108.386 178.488C106.621 181.225 104.793 183.915 102.871 186.581C102.136 187.58 101.393 188.573 100.642 189.562C101.706 188.707 102.822 187.917 103.981 187.196C106.872 185.446 109.959 184.595 112.179 187.199C114.894 190.498 112.617 195.507 107.113 195.268C103.977 195.076 100.933 194.139 98.2309 192.535C97.2304 193.742 96.2062 194.941 95.1506 196.116C97.0161 198.633 96.0776 202.569 91.7933 204.083C89.7124 204.775 87.5275 205.099 85.3358 205.043C85.0601 205.232 84.7923 205.414 84.5008 205.587L84.3669 205.682C81.0353 215.305 77.2312 224.744 72.9547 233.999C70.2648 239.836 67.4096 245.589 64.389 251.258C61.3317 256.937 58.2035 262.49 54.6502 268.019L49.3832 264.459C52.8184 259.34 56.0725 253.858 59.1691 248.384C62.2657 242.91 65.1734 237.287 67.9394 231.623C71.6037 224.059 74.9846 216.368 78.019 208.527C77.5701 208.598 77.1685 208.709 76.6802 208.74C76.1109 208.804 75.5354 208.785 74.9715 208.684L75.9257 204.543L76.0359 204.59L76.3982 204.59C76.6265 204.59 76.9337 204.504 77.1857 204.48C77.7838 204.36 78.3712 204.191 78.9419 203.976L79.6192 203.708C77.2317 202.689 75.0535 201.236 73.195 199.422C69.0543 195.342 70.6862 190.183 74.8204 190.034C78.175 189.917 79.8513 192.868 80.8109 196.292C81.0783 197.263 81.2905 198.273 81.4713 199.267C81.8102 198.375 82.1255 197.539 82.3699 196.64C83.2213 194.053 84.0332 191.452 84.8059 188.839C82.2153 187.801 79.8514 186.267 77.8462 184.324C73.7213 180.244 75.3453 175.085 79.4716 174.928C82.8342 174.811 84.5026 177.762 85.4621 181.186C85.7386 182.187 85.9643 183.201 86.1383 184.224C86.6587 182.307 87.1712 180.398 87.6522 178.481C87.9992 177.053 88.3304 175.618 88.638 174.19C88.8749 172.139 89.0489 170.08 89.1835 168.013C89.239 166.877 89.2945 165.749 89.3264 164.605C86.7827 165.217 84.1495 165.363 81.554 165.036C75.8057 164.245 74.02 159.148 77.2495 156.538C79.8567 154.417 82.9588 155.791 85.7851 157.961C87.0368 158.962 88.2301 160.035 89.3591 161.173C89.3562 156.309 88.9735 151.453 88.2144 146.649C87.7423 143.83 87.1203 141.038 86.351 138.286C83.6316 139.015 80.7969 139.21 78.0036 138.859C72.2554 138.068 70.4775 132.971 73.6991 130.361C76.3064 128.287 79.4243 129.574 82.2348 131.784C83.2351 132.567 84.1917 133.405 85.1003 134.294C84.173 131.59 83.0609 128.954 81.772 126.403C79.1697 121.269 75.7987 116.565 71.776 112.452C69.416 114.329 66.6904 115.69 63.774 116.449C58.1589 117.867 54.6088 113.787 56.6103 110.135C58.265 107.201 61.651 107.305 65.084 108.245C66.3783 108.624 67.6505 109.075 68.8949 109.595L68.8004 109.595C64.346 105.552 59.4864 101.981 54.299 98.9398C52.2256 101.303 49.6644 103.186 46.7925 104.46C41.4606 106.746 37.304 103.289 38.7307 99.3842C39.913 96.2289 43.2598 95.7883 46.7796 96.2313C48.1606 96.4185 49.5302 96.6823 50.8821 97.0216C45.3709 93.9193 39.7179 90.9195 34.3013 87.549L34.1753 87.5016C31.4962 89.4961 28.3942 90.8448 25.1103 91.443C19.3929 92.4351 16.2052 88.095 18.4428 84.6482C20.3022 81.8404 23.6803 82.2044 27.0266 83.4284C27.9635 83.7758 28.8847 84.2179 29.7744 84.6048C26.179 82.1524 22.7105 79.5181 19.3826 76.7121L19.0596 77.0039L19.0046 76.8619C16.3121 78.8898 13.1834 80.2585 9.86859 80.8585C4.14338 81.8506 0.971401 77.5105 3.20112 74.0637C5.06838 71.2559 8.43072 71.6199 11.7849 72.836C14.1434 73.8007 16.446 74.8972 18.682 76.1202C17.4854 75.0863 16.3203 74.0367 15.1395 72.9634C9.80569 68.0099 4.77436 62.7392 0.0728183 57.18C5.60214 63.4298 11.5769 69.2694 17.9501 74.6526C17.131 72.9707 16.424 71.2363 15.8336 69.4608C14.8583 66.2102 14.8122 62.9678 17.931 61.5725C21.7902 59.7436 26.065 63.1531 24.4882 68.4698C23.5567 71.3873 21.9597 74.0473 19.8237 76.239C23.9862 79.5815 28.3622 82.6479 32.924 85.4185L33.3649 85.6869C32.4844 83.8782 31.7274 82.0118 31.0989 80.1006C30.1314 76.85 30.0617 73.6549 33.1963 72.2122C37.0555 70.3912 41.3302 73.8402 39.7456 79.1096C38.8336 81.993 37.2666 84.6254 35.1678 86.7998C40.6789 90.0205 46.3792 92.8389 52.0794 95.8623L52.9297 96.3123C51.868 94.9997 50.8976 93.6155 50.0254 92.1695C48.3255 89.2342 47.5155 86.1335 50.2251 83.965C53.5491 81.2996 58.4778 83.6365 58.2003 89.1508C57.9733 92.1803 57.0535 95.1169 55.5121 97.7332C60.7948 100.603 65.7724 104.004 70.3681 107.884L70.5176 108.026C69.9343 106.934 69.409 105.812 68.9439 104.664C67.7323 101.508 67.4262 98.3132 70.4507 96.6024C70.988 96.2911 71.5812 96.0889 72.1965 96.0074C72.8118 95.9258 73.4372 95.9665 74.0367 96.1272C74.6363 96.2878 75.1985 96.5653 75.691 96.9436C76.1836 97.322 76.5969 97.7939 76.9073 98.3323C77.0792 98.6389 77.2215 98.9612 77.3322 99.2949C77.7518 98.7233 78.3067 98.2653 78.947 97.9622C81.9792 96.488 84.6953 98.5085 86.9622 101.255C87.5533 101.971 88.1051 102.719 88.6151 103.496C87.1064 98.1076 85.0994 92.8722 82.62 87.8576C79.8443 88.8452 76.8971 89.2576 73.9575 89.0695C68.1777 88.6415 66.0847 83.647 69.1332 80.8632C71.6145 78.5762 74.8033 79.7528 77.7477 81.7418C78.7268 82.4073 79.6701 83.1239 80.574 83.8886C77.9625 79.2322 74.9217 74.8308 71.4912 70.7423C68.9385 72.5321 66.0283 73.7451 62.9617 74.2973C57.2365 75.2894 54.0645 70.9493 56.3021 67.5025C58.1536 64.6947 61.5239 65.0587 64.8859 66.2906C66.4568 66.8913 67.9897 67.5874 69.4761 68.3749C68.0277 66.7966 66.5793 65.2182 65.0679 63.6399C63.0947 61.6827 61.0479 59.7781 58.9277 57.9261C56.4024 59.6621 53.5382 60.8416 50.5242 61.3865C44.799 62.3628 41.6192 58.0306 43.8646 54.5838C45.7161 51.7759 49.0864 52.14 52.4405 53.364C53.228 53.6483 54.0006 53.9724 54.7553 54.3351C51.1262 51.3124 47.3946 48.3921 43.6788 45.4245C41.0519 47.3319 38.0328 48.6274 34.8421 49.2161C29.1169 50.2003 25.9449 45.8602 28.1746 42.4134C30.034 39.6135 33.4043 39.9775 36.7584 41.1936C38.0572 41.6928 39.3292 42.2594 40.5692 42.8911C38.9947 41.6204 37.4675 40.326 36.0111 39.0002C34.8145 37.9584 33.6967 36.8062 32.5553 35.6619C31.894 35.0463 31.2485 34.3992 30.6267 33.7442C27.9853 35.6504 24.9532 36.943 21.7506 37.5279C16.0254 38.5042 12.7983 34.1562 15.0753 30.7173C16.9425 27.9094 20.3128 28.2735 23.6591 29.5053C25.5023 30.2224 27.2985 31.0556 29.0366 32.0002C24.7282 27.414 20.8473 22.4429 17.4424 17.1489C13.8902 11.8312 11.0563 6.06586 9.01452 0.00301892ZM87.4099 195.9C87.9784 195.257 88.696 194.764 89.4994 194.465C90.3028 194.165 91.1675 194.068 92.0172 194.182C93.2697 192.912 94.4671 191.595 95.6409 190.239L94.8537 189.449C93.2343 189.835 91.5721 190.009 89.9082 189.968L89.8215 190.213L89.0341 189.992C88.5531 191.972 88.0091 193.944 87.4099 195.9ZM91.3251 146.05C91.608 147.565 91.8359 149.096 92.0401 150.626L92.2922 150.398C92.561 147.313 92.7274 144.221 92.823 141.12C92.8788 138.959 92.8796 136.789 92.8252 134.62C91.7065 135.618 90.4838 136.493 89.1783 137.23C90.057 140.127 90.7685 143.072 91.3093 146.05L91.3251 146.05ZM87.1408 131.446C87.141 130.87 87.0939 130.31 87.0941 129.734C87.0942 129.45 87.0943 129.166 87.0944 128.882C86.6309 128.724 86.1807 128.528 85.7481 128.298C86.2438 129.34 86.6923 130.389 87.1172 131.454L87.1408 131.446ZM81.1881 107.099C79.4939 106.535 78.0598 105.377 77.1495 103.839C76.4171 106.366 75.1874 108.721 73.5327 110.764C76.4293 113.626 79.0247 116.778 81.2781 120.171C81.5356 119.687 81.8881 119.26 82.3145 118.915C82.7409 118.571 83.2323 118.317 83.7593 118.168C86.9725 117.183 89.3183 119.59 91.215 122.675L91.2858 122.825L91.4985 122.786C91.7159 122.766 91.9347 122.766 92.1521 122.786C92.1521 122.604 92.1522 122.423 92.0971 122.257C91.5962 117.598 90.8088 112.974 89.7395 108.411C86.8271 108.558 83.9153 108.112 81.1802 107.099L81.1881 107.099Z" fill="#cf0000" fill-opacity="0.4"/>
</svg>
